<svg  class="siteBranding-logo" xmlns="http://www.w3.org/2000/svg" viewBox="0 0 173 62.01">
  <defs>
    <style>.cls-1 { fill: #ffffff; }</style>
  </defs>
  <title>HRS Logo</title>
  <g id="layer1" data-name="Layer 1">
    <path class="cls-1" d="M85.68.76h3.77V7.34h6.94V.76h3.76V17.54H96.39v-7H89.45v7H85.68Z"/>
    <path class="cls-1" d="M105,12.52c.1,2.17,1.15,3.15,3,3.15a2.81,2.81,0,0,0,2.69-1.61h3a5.58,5.58,0,0,1-5.81,4.17c-3.91,0-6.34-2.68-6.34-6.52a6.22,6.22,0,0,1,6.34-6.55c4.23,0,6.26,3.55,6,7.36Zm5.55-2.16c-.31-1.72-1.06-2.64-2.71-2.64A2.69,2.69,0,0,0,105,10.36Z"/><path class="cls-1" d="M115.29,9.31c.2-3.2,3-4.15,5.84-4.15,2.47,0,5.45.55,5.45,3.52v6.46A6.4,6.4,0,0,0,127,17.9h-3.46a5.32,5.32,0,0,1-.24-1.2,5.67,5.67,0,0,1-4.18,1.53c-2.35,0-4.22-1.17-4.22-3.71,0-2.81,2.11-3.48,4.22-3.77s4-.24,4-1.64-1-1.67-2.21-1.67-2.14.52-2.26,1.87Zm7.88,2.52c-.58.5-1.78.53-2.83.72s-2,.57-2,1.82,1,1.59,2.09,1.59a2.54,2.54,0,0,0,2.76-2.86Z"/><path class="cls-1" d="M128.73,5.49H132V7.8H132a4.22,4.22,0,0,1,4-2.46c.24,0,2.31.08,2.52.15V7.77c-.31-.07-2.56,0-3,0-2.5,0-3.4,2.39-3.4,4.57V17.9h-3.41Z"/><path class="cls-1" d="M141.49,5.49H144V7.77h-2.5v6.15c0,1.15.29,1.44,1.45,1.44a5.41,5.41,0,0,0,1.05-.1v2.66a12.6,12.6,0,0,1-2,.12c-2.09,0-3.91-.48-3.91-2.95V7.77L136,7.59V5.68l2.07-.19V1.77h3.4Z"/>
    <path class="cls-1" d="M85.68,20.74h9.24a4.7,4.7,0,0,1,5,4.72,4.23,4.23,0,0,1-2.71,4.3v0c1.84.47,2.37,2.28,2.49,4,.07,1.08,0,3.09.72,4H96.67a19.9,19.9,0,0,1-.6-4.1c-.26-1.8-1-2.6-2.85-2.6H89.45v6.7H85.68Zm3.77,7.75h4.13c1.68,0,2.59-.73,2.59-2.45s-.91-2.38-2.59-2.38H89.45Z"/><path class="cls-1" d="M102.17,20.74h3.41v6.45h.07a4.35,4.35,0,0,1,3.62-2.06c3.63,0,4.54,2,4.54,5.11v7.63H110.4v-7c0-2.05-.6-3.05-2.19-3.05-1.84,0-2.63,1-2.63,3.55v6.5h-3.41Z"/>
    <path class="cls-1" d="M122,39.43c-.74,2-1.92,2.81-4.27,2.81a20.92,20.92,0,0,1-2.09-.12V39.31a16.36,16.36,0,0,0,2,.12,1.61,1.61,0,0,0,1.18-2.33l-4.37-11.64h3.65l2.81,8.5h0l2.72-8.5h3.52Z"/><path class="cls-1" d="M132.21,25.46h2.5v2.28h-2.5v6.14c0,1.16.29,1.45,1.45,1.45a5.33,5.33,0,0,0,1.05-.1V37.9a13.82,13.82,0,0,1-2,.12c-2.09,0-3.91-.48-3.91-3V27.74h-3.28l1.21-2.28h2.07V21.75h3.4Z"/><path class="cls-1" d="M136.34,20.74h3.41v6.45h.07a4.37,4.37,0,0,1,3.63-2.06c3.62,0,4.53,2,4.53,5.11v7.63h-3.4v-7c0-2.05-.61-3.05-2.19-3.05-1.85,0-2.64,1-2.64,3.55v6.5h-3.41Z"/>
    <path class="cls-1" d="M150.19,25.46h3.22v1.68h0a4.49,4.49,0,0,1,3.8-2,3.66,3.66,0,0,1,3.62,2.06,4.49,4.49,0,0,1,3.74-2.06c2.65,0,4.54,1.22,4.54,4.44v8.3h-3.41v-7c0-1.66-.14-3-2.09-3s-2.28,1.58-2.28,3.14v6.91H158v-7c0-1.44.1-3.09-2.06-3.09-.67,0-2.3.43-2.3,2.85v7.2h-3.41Z"/><path class="cls-1" d="M88.63,51.9c0,2.27,1.78,3.16,3.8,3.16,1.32,0,3.33-.38,3.33-2.13s-2.57-2.17-5.09-2.84-5.11-1.65-5.11-4.87c0-3.5,3.31-5.18,6.41-5.18,3.57,0,6.86,1.56,6.86,5.52H95.18C95.07,43.49,93.6,43,91.8,43c-1.2,0-2.59.5-2.59,1.94S90,46.4,94.32,47.5c1.25.31,5.09,1.11,5.09,5,0,3.15-2.47,5.5-7.13,5.5-3.79,0-7.34-1.87-7.29-6.09Z"/><path class="cls-1" d="M106.82,44.84c3.92,0,6.44,2.59,6.44,6.55s-2.52,6.53-6.44,6.53-6.4-2.59-6.4-6.53S102.94,44.84,106.82,44.84Zm0,10.51c2.33,0,3-2,3-4s-.7-4-3-4-3,2-3,4S104.52,55.35,106.82,55.35Z"/><path class="cls-1" d="M123.43,49.54a2.31,2.31,0,0,0-2.52-2.13c-2.18,0-2.9,2.2-2.9,4s.69,3.91,2.83,3.91a2.62,2.62,0,0,0,2.71-2.52h3.29c-.43,3.29-2.71,5.09-6,5.09a6,6,0,0,1-6.26-6.36c0-3.87,2.3-6.72,6.34-6.72,2.92,0,5.61,1.53,5.83,4.7Z"/><path class="cls-1" d="M131.78,43.25h-3.41v-2.8h3.41Zm-3.41,1.92h3.41V57.58h-3.41Z"/><path class="cls-1" d="M136.8,52.21c.09,2.15,1.15,3.14,3,3.14a2.79,2.79,0,0,0,2.68-1.61h3a5.58,5.58,0,0,1-5.81,4.18c-3.91,0-6.33-2.69-6.33-6.53a6.22,6.22,0,0,1,6.33-6.55c4.23,0,6.27,3.55,6,7.37Zm5.54-2.16c-.31-1.73-1.06-2.64-2.71-2.64a2.68,2.68,0,0,0-2.83,2.64Z"/><path class="cls-1" d="M151.12,45.17h3.5l1,2.28h-4.5v6.14c0,1.16.29,1.45,1.45,1.45a5.33,5.33,0,0,0,1.05-.1V57.6a12.55,12.55,0,0,1-2,.13c-2.09,0-3.91-.49-3.91-3V47.45h-2.07V45.17h2.07V41.46h3.4Z"/><path class="cls-1" d="M161.37,59.14c-.74,2-1.92,2.81-4.27,2.81a20.92,20.92,0,0,1-2.09-.12V59a16.36,16.36,0,0,0,2,.12,1.61,1.61,0,0,0,1.18-2.33l-4.37-11.64h3.65l2.81,8.5h0l2.71-8.5h3.53Z"/><path class="cls-1" d="M165,60.45c0,.67.49.93,1.1.93s.92-.33.92-.65a.51.51,0,0,0-.36-.54c-.3-.12-.7-.2-1.3-.36a1.11,1.11,0,0,1-1-1.11c0-.87.8-1.28,1.59-1.28s1.67.48,1.67,1.39h-.76c0-.56-.41-.77-.94-.77-.35,0-.8.13-.8.57s.21.48.52.56l1.26.34a1.16,1.16,0,0,1,.85,1.11c0,1-.87,1.37-1.74,1.37s-1.8-.48-1.82-1.56Z"/><path class="cls-1" d="M168.48,57.55h1.07l1.2,3.41h0l1.17-3.41H173V61.9h-.73V58.54h0l-1.21,3.36h-.63l-1.21-3.36h0V61.9h-.72Z"/><path class="cls-1" d="M31.74,50.34,28.4,52.53h-.21l.36-5.68c-1.5-1.73-2.86-3.45-4.1-5.15a34.28,34.28,0,0,1-8.3-2.27,31.28,31.28,0,0,1-1.6-8.11,40.8,40.8,0,0,0,4.68,1.57,37.22,37.22,0,0,1-1.67-4.32q-1.54-.54-3-1.2a.49.49,0,0,0,0-.12,31.53,31.53,0,0,1,1.65-8.17l.06,0a19.11,19.11,0,0,1,2-7.62C21.51,5.18,28.33,1.26,36.05,1.26l.4,0A28.09,28.09,0,1,0,26.26,56.12,27.78,27.78,0,0,0,36.4,54.91C34.75,53.38,33.2,51.85,31.74,50.34ZM21.3,4.61a35.54,35.54,0,0,0-6.82,9.62,34.42,34.42,0,0,1-4.29-2.76A24.62,24.62,0,0,1,21.3,4.61ZM7.92,14.31a39,39,0,0,0,5.16,3.3,35.32,35.32,0,0,0-1.84,8.08A39.18,39.18,0,0,1,4.7,21,24.38,24.38,0,0,1,7.92,14.31ZM3.69,26.5c0-.51.09-1,.16-1.5a42.43,42.43,0,0,0,7.21,4.72A34.51,34.51,0,0,0,12,37.36a35.16,35.16,0,0,1-8.23-6.67A25.38,25.38,0,0,1,3.69,26.5ZM5.43,37.23a38.19,38.19,0,0,0,8.14,5,35.78,35.78,0,0,0,4.64,8.17A24.55,24.55,0,0,1,5.43,37.23ZM24.55,52.28l-.24,0A32.39,32.39,0,0,1,18.12,44,37.2,37.2,0,0,0,25,45.45Z"/><path class="cls-1" d="M26.06,31.64a9.87,9.87,0,0,0,1.23-1.43c1-1.35,2-2.63,3.4-2.5s2.29,1.85,3.34,4c.23.47.55,1.13.77,1.52h1.93a1.62,1.62,0,0,1,.79.21c.14-2.05.52-6.86.88-11.07.28-3.37.54-6.06.75-8,.42-4,.5-4.75,1.77-4.9a1.44,1.44,0,0,1,1.57,1.18c.25,1.1.87,8.14,1.64,17.23.19,2.27.38,4.45.49,5.61a1.47,1.47,0,0,1,1-.38h4.2c.35-.56.93-1.68,1.38-2.56,2-3.86,2.78-5.22,4.1-5.34s2.44,1.43,3.91,3.81a21.84,21.84,0,0,0,1.69,2.48s11.88-1.05,17.4-5.1C83.93,5.21,59.4-2.14,49,9.6,38.06-2.75,11.49,6,20.84,29.8A15.51,15.51,0,0,0,26.06,31.64Z"/><path class="cls-1" d="M60.6,34.31c-1.39,0-2.33-1.52-3.76-3.81-.36-.59-.89-1.44-1.31-2-.56.87-1.32,2.36-1.83,3.35-1.57,3.06-2.09,4.09-3.29,4.09H46.22a2.43,2.43,0,0,0-.14.2c-.52.8-1.12,1.71-2.21,1.56-1.46-.19-1.75-1.87-1.93-2.88-.06-.3-.2-2-.6-6.7-.1-1.09-.2-2.32-.31-3.6-.41,4.93-.75,9.46-.77,10,0,1.38-.8,2.85-2.28,2.85a2.17,2.17,0,0,1-1.87-1.25H34.24c-1.22,0-1.79-1.16-2.73-3.11-.28-.58-.75-1.54-1.11-2.13-.3.33-.65.79-.9,1.11-1,1.3-2,2.7-3.33,2.7a8,8,0,0,1-3.44-.75c.77,1.44,1.65,2.93,2.68,4.47,4.7,7,12.26,14.88,23.58,23.54v0h0v0C60.34,53.25,67.9,45.36,72.6,38.37A46.12,46.12,0,0,0,77,30.21C72.49,33.25,60.6,34.31,60.6,34.31Z"/>
  </g>
</svg>
